#N canvas 532 48 201 178 12;
#X obj 16 43 bng 15 250 50 0 reload reload-set reload 17 7 0 10 -262144
-1 -1;
#X obj 17 14 cnv 15 15 15 empty empty PONG 0 7 0 20 -262144 -1 0;
#N canvas 524 205 450 300 guts 0;
#N canvas 512 216 615 546 s 0;
#X obj 31 26 r reload;
#X obj 79 168 r player--4;
#X obj 310 190 route symbol bang;
#X obj 310 165 r player-4;
#X obj 64 329 r start;
#X obj 220 352 r restart;
#X obj 395 346 r reset;
#X obj 59 403 r mute;
#X obj 210 430 r instructions;
#X msg 64 354 \; to-sub start bang;
#X msg 220 377 \; to-sub restart bang;
#X msg 395 371 \; to-sub reset bang;
#X msg 210 455 \; to-sub instructions \$1;
#X msg 59 428 \; to-sub mute \$1;
#X msg 79 231 \; to-sub player--4 symbol \$1;
#X msg 151 278 \; to-sub player--4 bang;
#X msg 310 228 \; to-sub player-4 symbol \$1;
#X msg 383 281 \; to-sub player-4 bang;
#X obj 79 193 route symbol bang;
#X obj 435 59 route turn score;
#X obj 435 84 s turn;
#X obj 499 85 s score;
#X obj 437 22 r from-sub;
#X msg 31 61 300 1200;
#X text 101 61 <-- screen size and ball speed;
#X msg 428 438 400 1200;
#X msg 428 463 \; to-sub reload \$1 \$2;
#X msg 29 92 \; to-sub pd~ start -nogui _sub.pd \, reload \$1 \$2 \;
speed \$2 \;;
#X connect 0 0 23 0;
#X connect 1 0 18 0;
#X connect 2 0 16 0;
#X connect 2 1 17 0;
#X connect 3 0 2 0;
#X connect 4 0 9 0;
#X connect 5 0 10 0;
#X connect 6 0 11 0;
#X connect 7 0 13 0;
#X connect 8 0 12 0;
#X connect 18 0 14 0;
#X connect 18 1 15 0;
#X connect 19 0 20 0;
#X connect 19 1 21 0;
#X connect 22 0 19 0;
#X connect 23 0 27 0;
#X connect 25 0 26 0;
#X restore 14 43 pd s glue _______;
#N canvas 0 22 450 300 s 0;
#X obj 130 103 pd~;
#X obj 129 77 r to-sub;
#X obj 130 128 s from-sub;
#X connect 0 0 2 0;
#X connect 1 0 0 0;
#X restore 14 18 pd s sub ________;
#N canvas 0 22 508 380 s 0;
#X obj 86 31 keyname;
#X obj 86 56 sel 1;
#X obj 86 81 symbol;
#X obj 136 263 s reset;
#X obj 98 206 t b b;
#X obj 42 238 spigot;
#X obj 42 263 t b b;
#X msg 86 265 0;
#X msg 97 239 1;
#X obj 392 101 r turn;
#X obj 315 134 t a a;
#X obj 315 202 spigot;
#X obj 393 202 spigot;
#X obj 392 126 t f f;
#X obj 392 151 == 0;
#X obj 138 55 spigot;
#X obj 145 222 s restart;
#X obj 122 170 t b b;
#X obj 257 276 tgl 15 0 empty empty empty 17 7 0 10 -262144 -1 -1 0
1;
#X obj 257 301 s mute;
#X obj 86 104 sel Space r Escape m i;
#X obj 320 311 s instructions;
#X obj 321 286 tgl 15 0 empty empty empty 17 7 0 10 -262144 -1 -1 0
1;
#X obj 183 29 r keys;
#X obj 315 247 s player--4;
#X obj 407 249 s player-4;
#X obj 41 300 s start;
#X symbolatom 293 55 10 0 0 0 - - -, f 10;
#X connect 0 0 1 0;
#X connect 0 1 15 0;
#X connect 1 0 2 0;
#X connect 2 0 20 0;
#X connect 4 0 8 0;
#X connect 4 1 3 0;
#X connect 5 0 6 0;
#X connect 6 0 26 0;
#X connect 6 1 7 0;
#X connect 7 0 5 1;
#X connect 8 0 5 1;
#X connect 9 0 13 0;
#X connect 10 0 11 0;
#X connect 10 1 12 0;
#X connect 11 0 24 0;
#X connect 12 0 25 0;
#X connect 13 0 14 0;
#X connect 13 1 12 1;
#X connect 14 0 11 1;
#X connect 15 0 2 1;
#X connect 17 0 4 0;
#X connect 17 1 16 0;
#X connect 18 0 19 0;
#X connect 20 0 5 0;
#X connect 20 1 4 0;
#X connect 20 2 17 0;
#X connect 20 3 18 0;
#X connect 20 4 22 0;
#X connect 20 5 10 0;
#X connect 20 5 27 0;
#X connect 22 0 21 0;
#X connect 23 0 15 1;
#X restore 14 68 pd s keys _______;
#N canvas 0 22 450 300 s 0;
#X obj 133 171 dac~;
#N canvas 0 22 450 300 s 0;
#X obj 36 130 vline~;
#X msg 36 94 -0.25 3 \, 0.25 20 3;
#X obj 36 155 cos~;
#X obj 36 230 *~;
#X obj 212 131 vline~;
#X msg 212 95 -0.25 3 \, 0.25 20 3;
#X obj 212 156 cos~;
#X obj 212 231 *~;
#X obj 36 255 outlet~;
#X obj 212 256 outlet~;
#X obj 152 23 loadbang;
#X msg 152 48 -0.25;
#X obj 36 35 r player-4;
#X obj 212 39 r player--4;
#X obj 332 230 r mute;
#X obj 332 255 switch~;
#X obj 212 64 route bang;
#X obj 36 60 route bang;
#X obj 297 184 sqrt~;
#X obj 297 156 sqrt~;
#X obj 297 131 phasor~ 220;
#X connect 0 0 2 0;
#X connect 1 0 0 0;
#X connect 2 0 3 0;
#X connect 3 0 8 0;
#X connect 4 0 6 0;
#X connect 5 0 4 0;
#X connect 6 0 7 0;
#X connect 7 0 9 0;
#X connect 10 0 11 0;
#X connect 11 0 0 0;
#X connect 11 0 4 0;
#X connect 12 0 17 0;
#X connect 13 0 16 0;
#X connect 14 0 15 0;
#X connect 16 0 5 0;
#X connect 17 0 1 0;
#X connect 18 0 3 1;
#X connect 18 0 7 1;
#X connect 19 0 18 0;
#X connect 20 0 19 0;
#X restore 35 80 pd s beep;
#N canvas 0 22 449 333 s 0;
#X msg 271 61 1 \, 0 0 1;
#X obj 271 106 biquad~ 1.80665 -0.938284 1.44434 -1.80665 0.493948
, f 17;
#X obj 271 162 biquad~ 1.77389 -0.892277 0.948653 -1.81983 0.897683
, f 17;
#X obj 271 84 vline~;
#X obj 178 45 r turn;
#X obj 178 70 sel;
#X msg 21 21 1 \, 0 0 1;
#X obj 21 43 vline~;
#X obj 21 66 biquad~ 1.83973 -0.984021 1.05923 -1.83973 0.924786,
f 15;
#X obj 21 154 biquad~ 1.9319 -0.992929 0.12235 0 -0.12235, f 15;
#X obj 21 225 biquad~ 1.99095 -0.994762 0.0308232 0 -0.0308232, f
15;
#X obj 274 248 outlet~;
#X obj 21 298 outlet~;
#X obj 330 276 r mute;
#X obj 330 301 switch~;
#X connect 0 0 3 0;
#X connect 1 0 2 0;
#X connect 2 0 11 0;
#X connect 3 0 1 0;
#X connect 4 0 5 0;
#X connect 5 0 6 0;
#X connect 5 1 0 0;
#X connect 6 0 7 0;
#X connect 7 0 8 0;
#X connect 8 0 9 0;
#X connect 9 0 10 0;
#X connect 10 0 12 0;
#X connect 13 0 14 0;
#X restore 117 78 pd s stick;
#N canvas 588 33 595 453 s 0;
#X obj 71 12 r score;
#X obj 71 37 == 0;
#X obj 71 61 metro;
#X obj 71 86 f;
#X obj 110 86 + 1;
#X obj 71 111 mod 16;
#X obj 71 170 sel;
#X obj 265 315 vline~;
#X obj 265 156 t b b;
#X obj 302 226 + 60;
#X obj 363 246 mtof~;
#X obj 363 365 +~;
#X obj 384 309 osc~;
#X obj 265 385 *~;
#X obj 194 428 outlet~;
#X obj 363 390 osc~;
#X obj 265 340 cos~;
#X obj 384 335 *~ 100;
#X obj 85 347 mtof~;
#X obj 85 372 osc~;
#X obj 133 380 vline~;
#X obj 133 405 cos~;
#X obj 85 397 *~;
#X obj 442 150 loadbang;
#X msg 442 175 -0.25;
#X obj 169 68 t f f;
#X msg 133 331 -0.25 3 \, 0.25 \$1 3, f 10;
#X obj 133 305 f 200;
#X obj 71 195 f;
#X obj 109 197 + 1;
#X msg 232 125 0;
#X obj 233 100 r reset;
#X obj 71 256 + 60;
#X obj 353 14 r mute;
#X obj 353 39 switch~;
#X obj 82 278 t f b f;
#X obj 71 233 t f f;
#X obj 384 284 *~ 1;
#X obj 483 255 / 10;
#X obj 483 280 + 1;
#X obj 71 136 spigot;
#X obj 139 107 r start;
#X msg 139 132 1;
#X obj 225 56 r instructions;
#X obj 225 81 == 0;
#X obj 130 58 / 7;
#X msg 265 266 -0.25 3 \, 0.25 100 3, f 10;
#X obj 164 33 r speed;
#X obj 371 171 + 1;
#X obj 336 168 f;
#X obj 336 129 t b f;
#X obj 336 104 random 5;
#X obj 336 193 mod 13;
#X connect 0 0 1 0;
#X connect 1 0 2 0;
#X connect 2 0 3 0;
#X connect 3 0 4 0;
#X connect 3 0 5 0;
#X connect 4 0 3 1;
#X connect 5 0 40 0;
#X connect 6 0 28 0;
#X connect 6 1 8 0;
#X connect 7 0 16 0;
#X connect 8 0 46 0;
#X connect 8 1 51 0;
#X connect 9 0 10 0;
#X connect 10 0 11 0;
#X connect 10 0 37 0;
#X connect 11 0 15 0;
#X connect 12 0 17 0;
#X connect 13 0 14 0;
#X connect 15 0 13 1;
#X connect 16 0 13 0;
#X connect 17 0 11 1;
#X connect 18 0 19 0;
#X connect 19 0 22 0;
#X connect 20 0 21 0;
#X connect 21 0 22 1;
#X connect 22 0 14 0;
#X connect 23 0 24 0;
#X connect 24 0 7 0;
#X connect 24 0 20 0;
#X connect 25 0 45 0;
#X connect 25 1 27 1;
#X connect 26 0 20 0;
#X connect 27 0 26 0;
#X connect 28 0 29 0;
#X connect 28 0 36 0;
#X connect 29 0 28 1;
#X connect 30 0 28 1;
#X connect 31 0 30 0;
#X connect 32 0 35 0;
#X connect 33 0 34 0;
#X connect 35 0 18 0;
#X connect 35 1 27 0;
#X connect 35 2 9 1;
#X connect 36 0 32 0;
#X connect 36 1 38 0;
#X connect 37 0 12 0;
#X connect 38 0 39 0;
#X connect 39 0 37 1;
#X connect 40 0 6 0;
#X connect 41 0 42 0;
#X connect 42 0 40 1;
#X connect 43 0 44 0;
#X connect 44 0 40 1;
#X connect 45 0 2 1;
#X connect 46 0 7 0;
#X connect 47 0 25 0;
#X connect 48 0 49 1;
#X connect 49 0 48 0;
#X connect 49 0 52 0;
#X connect 50 0 49 0;
#X connect 50 1 48 1;
#X connect 51 0 50 0;
#X connect 52 0 9 0;
#X restore 226 77 pd s sequence;
#X connect 1 0 0 0;
#X connect 1 1 0 1;
#X connect 2 0 0 0;
#X connect 2 1 0 1;
#X connect 3 0 0 0;
#X connect 3 0 0 1;
#X restore 14 93 pd s sound ______;
#X obj 211 20 loadbang;
#X msg 211 45 \; pd dsp 1 \; reload-set bang;
#X connect 4 0 5 0;
#X restore 15 92 pd guts;
#X obj 16 69 tgl 15 0 keys empty keys 17 7 0 10 -262144 -1 -1 1 1;
#X text 11 128 fdch.github.io/tv;
