#N canvas 0 22 498 665 12;
#X obj 126 175 translate 0 0 1 0;
#X obj 126 200 pix_texture;
#X obj 126 225 rectangle 0.25 1;
#X obj 126 118 separator;
#X obj 89 38 inlet;
#X obj 126 150 translate \$1 1 0 0;
#N canvas 0 22 515 372 updown 0;
#X msg 138 74 1;
#X msg 218 73 -1;
#X obj 186 184 / 2;
#X obj 186 242 moses -3;
#X obj 247 267 moses 4;
#X obj 138 36 spigot 1;
#X obj 218 36 spigot 1;
#X msg 53 150 0;
#X msg 53 127 0;
#X obj 247 297 t f b;
#X msg 342 143 1;
#X obj 214 108 r reset;
#X obj 138 13 inlet;
#X obj 218 14 inlet;
#X obj 247 322 outlet;
#X obj 149 121 t b f;
#X obj 149 157 f;
#X obj 186 158 + 0;
#X msg 214 132 0;
#X connect 0 0 15 0;
#X connect 1 0 15 0;
#X connect 2 0 3 0;
#X connect 3 0 7 0;
#X connect 3 1 4 0;
#X connect 4 0 9 0;
#X connect 4 1 8 0;
#X connect 5 0 0 0;
#X connect 6 0 1 0;
#X connect 7 0 6 1;
#X connect 8 0 5 1;
#X connect 9 0 14 0;
#X connect 9 1 10 0;
#X connect 10 0 5 1;
#X connect 10 0 6 1;
#X connect 11 0 18 0;
#X connect 12 0 5 0;
#X connect 13 0 6 0;
#X connect 15 0 16 0;
#X connect 15 1 17 0;
#X connect 16 0 17 1;
#X connect 17 0 16 1;
#X connect 17 0 2 0;
#X connect 18 0 17 1;
#X connect 18 0 16 1;
#X connect 18 0 17 0;
#X restore 237 116 pd updown;
#X obj 237 84 sel \$2 \$3;
#X obj 89 599 text2d;
#X obj 288 423 f;
#X obj 325 423 + 1;
#X msg 288 452 text \$1;
#X obj 309 369 r restart;
#X msg 309 394 0;
#X obj 89 329 spigot 1;
#X obj 136 380 loadbang;
#X obj 89 63 t a a;
#X obj 283 25 r player-\$1;
#X obj 150 300 r score;
#X obj 136 411 f \$1;
#X obj 136 436 * 0.5;
#X obj 89 473 translateXYZ 0 3 0;
#X obj 89 258 separator;
#X obj 383 432 r gemwin;
#X obj 383 457 route dimen;
#X obj 383 482 unpack;
#X obj 383 507 * 0.33;
#X obj 383 532 int;
#X obj 283 50 route symbol bang;
#X connect 0 0 1 0;
#X connect 1 0 2 0;
#X connect 3 0 5 0;
#X connect 4 0 16 0;
#X connect 5 0 0 0;
#X connect 6 0 0 1;
#X connect 7 0 6 0;
#X connect 7 1 6 1;
#X connect 9 0 10 0;
#X connect 9 0 11 0;
#X connect 10 0 9 1;
#X connect 11 0 8 0;
#X connect 12 0 13 0;
#X connect 13 0 9 0;
#X connect 14 0 21 0;
#X connect 15 0 19 0;
#X connect 16 0 22 0;
#X connect 16 1 3 0;
#X connect 17 0 28 0;
#X connect 18 0 14 1;
#X connect 19 0 20 0;
#X connect 20 0 21 1;
#X connect 21 0 8 0;
#X connect 22 0 14 0;
#X connect 23 0 24 0;
#X connect 24 0 25 0;
#X connect 25 0 26 0;
#X connect 26 0 27 0;
#X connect 27 0 8 1;
#X connect 28 0 7 0;
#X connect 28 1 9 0;
