#N canvas 532 213 450 300 12;
#X declare -lib Gem;
#N canvas 677 80 500 452 s 0;
#X obj 133 74 r reset;
#X msg 122 105 0;
#X obj 122 46 r start;
#X obj 49 353 translate 2 0 1 0, f 9;
#X obj 186 418 text2d;
#X obj 49 284 gemhead;
#X obj 142 194 metro 2000;
#X obj 142 219 f;
#X obj 173 219 + 1;
#X obj 231 343 list trim;
#X obj 368 255 r gemwin;
#X obj 368 280 route dimen;
#X obj 368 305 unpack;
#X obj 368 355 int;
#X obj 368 330 * 0.1;
#X obj 107 6 r instructions;
#X obj 240 178 text define inst;
#X obj 240 228 text size inst;
#X obj 231 318 text get inst;
#X obj 240 203 b;
#X obj 142 248 sel;
#X obj 142 332 s reset;
#X obj 107 151 t f f f, f 9;
#X connect 0 0 1 0;
#X connect 1 0 22 0;
#X connect 2 0 1 0;
#X connect 3 0 4 0;
#X connect 5 0 3 0;
#X connect 6 0 7 0;
#X connect 7 0 8 0;
#X connect 7 0 20 0;
#X connect 8 0 7 1;
#X connect 9 0 4 0;
#X connect 10 0 11 0;
#X connect 11 0 12 0;
#X connect 12 0 14 0;
#X connect 13 0 4 1;
#X connect 14 0 13 0;
#X connect 15 0 22 0;
#X connect 16 0 19 0;
#X connect 17 0 20 1;
#X connect 18 0 9 0;
#X connect 19 0 17 0;
#X connect 20 0 21 0;
#X connect 20 1 18 0;
#X connect 22 0 5 0;
#X connect 22 1 6 0;
#X connect 22 2 7 1;
#X restore 21 52 pd s instructions ______;
#N canvas 0 22 450 300 s 0;
#X obj 143 50 gemhead 1;
#X obj 19 181 pix_texture;
#X obj 19 206 square 0.15;
#X obj 19 157 translateXYZ;
#X obj 19 80 gemhead 2;
#X obj 196 120 _player -4 w s;
#X obj 143 79 t a a a;
#N canvas 436 22 508 578 s 0;
#X obj 120 417 pix_data;
#X obj 120 383 t b f;
#X obj 46 325 t f f;
#X obj 191 324 t f f;
#X obj 191 349 * 8;
#X obj 191 374 - 4;
#X obj 46 350 * 8;
#X obj 46 375 - 4;
#X obj 397 182 change;
#X obj 397 207 sel 1;
#X obj 46 299 line;
#X obj 46 149 tgl 15 0 empty empty empty 17 7 0 10 -262144 -1 -1 0
1;
#X obj 191 224 random 100;
#X obj 191 249 / 100;
#X obj 191 299 line;
#X obj 46 273 pack f 1000;
#X obj 191 274 pack f 1000;
#X obj 140 28 inlet;
#X obj 83 507 outlet;
#X obj 191 506 outlet;
#X obj 140 54 t a b;
#X obj 140 90 pix_snap 0 0 500 500;
#X obj 298 118 r reset;
#X obj 46 118 r start;
#X msg 298 279 0.5;
#X obj 197 119 r speed;
#X obj 46 431 t f f;
#X obj 46 187 t f b f;
#X obj 115 185 s turn;
#X obj 46 460 change;
#X obj 297 21 r gemwin;
#X obj 297 46 route dimen;
#N canvas 562 23 511 380 s 0;
#X obj 55 96 sel 4 -4;
#X obj 55 24 inlet;
#X obj 344 213 r reset;
#X msg 333 244 0;
#X obj 333 185 r start;
#X obj 60 173 t b b;
#X obj 150 173 t b b;
#X msg 276 255 1;
#X obj 276 311 s score;
#X obj 384 243 loadbang;
#X obj 51 322 s player--4;
#X obj 149 318 s player-4;
#X connect 0 0 5 0;
#X connect 0 1 6 0;
#X connect 1 0 0 0;
#X connect 2 0 3 0;
#X connect 3 0 8 0;
#X connect 4 0 3 0;
#X connect 5 0 10 0;
#X connect 5 1 7 0;
#X connect 6 0 11 0;
#X connect 6 1 7 0;
#X connect 7 0 8 0;
#X connect 9 0 3 0;
#X restore 46 543 pd s score;
#X connect 0 2 8 0;
#X connect 1 0 0 0;
#X connect 1 1 0 2;
#X connect 2 0 6 0;
#X connect 2 1 1 0;
#X connect 3 0 4 0;
#X connect 3 1 0 3;
#X connect 4 0 5 0;
#X connect 5 0 19 0;
#X connect 6 0 7 0;
#X connect 7 0 26 0;
#X connect 8 0 9 0;
#X connect 9 0 11 0;
#X connect 10 0 2 0;
#X connect 11 0 27 0;
#X connect 12 0 13 0;
#X connect 13 0 16 0;
#X connect 14 0 3 0;
#X connect 15 0 10 0;
#X connect 16 0 14 0;
#X connect 17 0 20 0;
#X connect 20 0 21 0;
#X connect 20 1 21 0;
#X connect 21 0 0 1;
#X connect 22 0 24 0;
#X connect 23 0 11 0;
#X connect 24 0 10 0;
#X connect 24 0 14 0;
#X connect 25 0 16 1;
#X connect 25 0 15 1;
#X connect 26 0 29 0;
#X connect 26 1 18 0;
#X connect 27 0 15 0;
#X connect 27 1 12 0;
#X connect 27 2 28 0;
#X connect 29 0 32 0;
#X connect 30 0 31 0;
#X connect 31 0 21 2;
#X restore 50 121 pd s game;
#X obj 169 153 _player 4 Up Down;
#X connect 0 0 6 0;
#X connect 1 0 2 0;
#X connect 3 0 1 0;
#X connect 4 0 3 0;
#X connect 6 0 7 0;
#X connect 6 1 8 0;
#X connect 6 2 5 0;
#X connect 7 0 3 1;
#X connect 7 1 3 2;
#X restore 21 76 pd s pong ______________;
#N canvas 0 22 450 300 s 0;
#X obj 160 50 r turn;
#X obj 160 171 stdout;
#X obj 200 111 r score;
#X msg 160 75 turn \$1;
#X msg 200 136 score \$1;
#X connect 0 0 3 0;
#X connect 2 0 4 0;
#X connect 3 0 1 0;
#X connect 4 0 1 0;
#X restore 21 101 pd s to-super __________;
#N canvas 739 51 450 300 s 1;
#X obj 316 122 gemwin;
#X obj 316 83 r gemwin;
#X obj 284 14 declare -lib Gem;
#X obj 14 19 r reload;
#X msg 35 49 300 1200;
#X msg 14 81 \; pd dsp 1 \; inst read instructions.txt \, bang \; gemwin
0 \, destroy \; gemwin dimen \$1 \$1 \; speed \$2 \; restart bang \;
reset bang \; instructions 1 \; gemwin title pong \, FSAA 4 \; gemwin
create \, 1 \;;
#X connect 1 0 0 0;
#X connect 3 0 5 0;
#X connect 4 0 5 0;
#X restore 21 27 pd s reload ____________;
